<svg width="2017" height="1022" xmlns="http://www.w3.org/2000/svg" xmlns:xlink="http://www.w3.org/1999/xlink" overflow="hidden"><defs><clipPath id="clip0"><rect x="1842" y="394" width="2017" height="1022"/></clipPath><clipPath id="clip1"><rect x="1843" y="398" width="2013" height="1016"/></clipPath><clipPath id="clip2"><rect x="1843" y="398" width="2013" height="1016"/></clipPath><clipPath id="clip3"><rect x="1953" y="568" width="1515" height="743"/></clipPath><clipPath id="clip4"><rect x="1843" y="398" width="2013" height="1016"/></clipPath><clipPath id="clip5"><rect x="1953" y="568" width="1515" height="743"/></clipPath><clipPath id="clip6"><rect x="1843" y="398" width="2013" height="1016"/></clipPath><clipPath id="clip7"><rect x="1953" y="568" width="1515" height="743"/></clipPath><clipPath id="clip8"><rect x="1843" y="398" width="2013" height="1016"/></clipPath><clipPath id="clip9"><rect x="1843" y="398" width="2013" height="1016"/></clipPath><clipPath id="clip10"><rect x="1843" y="398" width="2013" height="1016"/></clipPath><clipPath id="clip11"><rect x="1843" y="398" width="2013" height="1016"/></clipPath><clipPath id="clip12"><rect x="1843" y="398" width="2013" height="1016"/></clipPath><clipPath id="clip13"><rect x="1843" y="398" width="2013" height="1016"/></clipPath><clipPath id="clip14"><rect x="1843" y="398" width="2013" height="1016"/></clipPath><clipPath id="clip15"><rect x="1843" y="398" width="2013" height="1016"/></clipPath><clipPath id="clip16"><rect x="1843" y="398" width="2013" height="1016"/></clipPath><clipPath id="clip17"><rect x="1843" y="398" width="2013" height="1016"/></clipPath><clipPath id="clip18"><rect x="1843" y="398" width="2013" height="1016"/></clipPath><clipPath id="clip19"><rect x="1843" y="398" width="2013" height="1016"/></clipPath><clipPath id="clip20"><rect x="1843" y="398" width="2013" height="1016"/></clipPath><clipPath id="clip21"><rect x="1843" y="398" width="2013" height="1016"/></clipPath><clipPath id="clip22"><rect x="1843" y="398" width="2013" height="1016"/></clipPath><clipPath id="clip23"><rect x="1843" y="398" width="2013" height="1016"/></clipPath><clipPath id="clip24"><rect x="1843" y="398" width="2013" height="1016"/></clipPath><clipPath id="clip25"><rect x="1843" y="398" width="2013" height="1016"/></clipPath><clipPath id="clip26"><rect x="1843" y="398" width="2013" height="1016"/></clipPath><clipPath id="clip27"><rect x="1843" y="398" width="2013" height="1016"/></clipPath><clipPath id="clip28"><rect x="1843" y="398" width="2013" height="1016"/></clipPath><clipPath id="clip29"><rect x="1843" y="398" width="2013" height="1016"/></clipPath><clipPath id="clip30"><rect x="1843" y="398" width="2013" height="1016"/></clipPath><clipPath id="clip31"><rect x="1843" y="398" width="2013" height="1016"/></clipPath><clipPath id="clip32"><rect x="1843" y="398" width="2013" height="1016"/></clipPath><clipPath id="clip33"><rect x="1843" y="398" width="2013" height="1016"/></clipPath><clipPath id="clip34"><rect x="1843" y="398" width="2013" height="1016"/></clipPath><clipPath id="clip35"><rect x="1843" y="398" width="2013" height="1016"/></clipPath><clipPath id="clip36"><rect x="1843" y="398" width="2013" height="1016"/></clipPath></defs><g clip-path="url(#clip0)" transform="translate(-1842 -394)"><rect x="1844" y="399" width="2013" height="1015" fill="#FFFFFF" fill-opacity="1"/><g clip-path="url(#clip1)"><path d="M1953.5 1215.54 3465.5 1215.54M1953.5 1123.54 3465.5 1123.54M1953.5 1030.53 3465.5 1030.53M1953.5 938.531 3465.5 938.531M1953.5 845.528 3465.5 845.528M1953.5 753.525 3465.5 753.525M1953.5 661.522 3465.5 661.522M1953.5 568.5 3465.5 568.5" stroke="#D9D9D9" stroke-width="3.4375" stroke-linecap="butt" stroke-linejoin="round" stroke-miterlimit="10" stroke-opacity="1" fill="none" fill-rule="nonzero"/></g><g clip-path="url(#clip2)"><path d="M1953.5 1308.5 3465.5 1308.5" stroke="#D9D9D9" stroke-width="3.4375" stroke-linecap="butt" stroke-linejoin="round" stroke-miterlimit="10" stroke-opacity="1" fill="none" fill-rule="evenodd"/></g><g clip-path="url(#clip3)"><path d="M2037 1105 2205.07 680.022 2373.08 643.021 2541.08 606 2709.09 717.024 2877.09 864.028 3045.1 717.024 3213.11 1031.03 3381 957.031" stroke="#4472C4" stroke-width="10.3125" stroke-linecap="round" stroke-linejoin="round" stroke-miterlimit="10" stroke-opacity="1" fill="none" fill-rule="nonzero"/></g><g clip-path="url(#clip4)"><path d="M2048.14 1104.17C2048.14 1110.24 2043.21 1115.17 2037.14 1115.17 2031.06 1115.17 2026.14 1110.24 2026.14 1104.17 2026.14 1098.09 2031.06 1093.17 2037.14 1093.17 2043.21 1093.17 2048.14 1098.09 2048.14 1104.17Z" stroke="#4472C4" stroke-width="3.4375" stroke-linecap="butt" stroke-linejoin="round" stroke-miterlimit="10" stroke-opacity="1" fill="#4472C4" fill-rule="nonzero" fill-opacity="1"/><path d="M2216.14 679.168C2216.14 685.243 2211.21 690.168 2205.14 690.168 2199.06 690.168 2194.14 685.243 2194.14 679.168 2194.14 673.094 2199.06 668.169 2205.14 668.169 2211.21 668.169 2216.14 673.094 2216.14 679.168Z" stroke="#4472C4" stroke-width="3.4375" stroke-linecap="butt" stroke-linejoin="round" stroke-miterlimit="10" stroke-opacity="1" fill="#4472C4" fill-rule="nonzero" fill-opacity="1"/><path d="M2384.14 642.168C2384.14 648.243 2379.21 653.168 2373.14 653.168 2367.06 653.168 2362.14 648.243 2362.14 642.168 2362.14 636.093 2367.06 631.169 2373.14 631.169 2379.21 631.169 2384.14 636.093 2384.14 642.168Z" stroke="#4472C4" stroke-width="3.4375" stroke-linecap="butt" stroke-linejoin="round" stroke-miterlimit="10" stroke-opacity="1" fill="#4472C4" fill-rule="nonzero" fill-opacity="1"/><path d="M2552.14 605.169C2552.14 611.243 2547.21 616.168 2541.14 616.168 2535.06 616.168 2530.14 611.243 2530.14 605.169 2530.14 599.094 2535.06 594.169 2541.14 594.169 2547.21 594.169 2552.14 599.094 2552.14 605.169Z" stroke="#4472C4" stroke-width="3.4375" stroke-linecap="butt" stroke-linejoin="round" stroke-miterlimit="10" stroke-opacity="1" fill="#4472C4" fill-rule="nonzero" fill-opacity="1"/><path d="M2720.14 716.168C2720.14 722.243 2715.21 727.168 2709.14 727.168 2703.06 727.168 2698.14 722.243 2698.14 716.168 2698.14 710.093 2703.06 705.169 2709.14 705.169 2715.21 705.169 2720.14 710.093 2720.14 716.168Z" stroke="#4472C4" stroke-width="3.4375" stroke-linecap="butt" stroke-linejoin="round" stroke-miterlimit="10" stroke-opacity="1" fill="#4472C4" fill-rule="nonzero" fill-opacity="1"/><path d="M2888.14 864.168C2888.14 870.243 2883.21 875.168 2877.14 875.168 2871.06 875.168 2866.14 870.243 2866.14 864.168 2866.14 858.093 2871.06 853.169 2877.14 853.169 2883.21 853.169 2888.14 858.093 2888.14 864.168Z" stroke="#4472C4" stroke-width="3.4375" stroke-linecap="butt" stroke-linejoin="round" stroke-miterlimit="10" stroke-opacity="1" fill="#4472C4" fill-rule="nonzero" fill-opacity="1"/><path d="M3056.14 716.168C3056.14 722.243 3051.21 727.168 3045.14 727.168 3039.06 727.168 3034.14 722.243 3034.14 716.168 3034.14 710.093 3039.06 705.169 3045.14 705.169 3051.21 705.169 3056.14 710.093 3056.14 716.168Z" stroke="#4472C4" stroke-width="3.4375" stroke-linecap="butt" stroke-linejoin="round" stroke-miterlimit="10" stroke-opacity="1" fill="#4472C4" fill-rule="nonzero" fill-opacity="1"/><path d="M3224.14 1030.17C3224.14 1036.24 3219.21 1041.17 3213.14 1041.17 3207.06 1041.17 3202.14 1036.24 3202.14 1030.17 3202.14 1024.09 3207.06 1019.17 3213.14 1019.17 3219.21 1019.17 3224.14 1024.09 3224.14 1030.17Z" stroke="#4472C4" stroke-width="3.4375" stroke-linecap="butt" stroke-linejoin="round" stroke-miterlimit="10" stroke-opacity="1" fill="#4472C4" fill-rule="nonzero" fill-opacity="1"/><path d="M3392.14 956.168C3392.14 962.243 3387.21 967.168 3381.14 967.168 3375.06 967.168 3370.14 962.243 3370.14 956.168 3370.14 950.094 3375.06 945.169 3381.14 945.169 3387.21 945.169 3392.14 950.094 3392.14 956.168Z" stroke="#4472C4" stroke-width="3.4375" stroke-linecap="butt" stroke-linejoin="round" stroke-miterlimit="10" stroke-opacity="1" fill="#4472C4" fill-rule="nonzero" fill-opacity="1"/></g><g clip-path="url(#clip5)"><path d="M2037 1216 2205.07 957.031 2373.08 1049.03 2541.08 717 2709.09 920.03 2877.09 1086.04 3045.1 1012.03 3213.11 1068.04 3381 938.031" stroke="#ED7D31" stroke-width="10.3125" stroke-linecap="round" stroke-linejoin="round" stroke-miterlimit="10" stroke-opacity="1" fill="none" fill-rule="nonzero"/></g><g clip-path="url(#clip6)"><path d="M2048.14 1215.17C2048.14 1221.24 2043.21 1226.17 2037.14 1226.17 2031.06 1226.17 2026.14 1221.24 2026.14 1215.17 2026.14 1209.09 2031.06 1204.17 2037.14 1204.17 2043.21 1204.17 2048.14 1209.09 2048.14 1215.17Z" stroke="#ED7D31" stroke-width="3.4375" stroke-linecap="butt" stroke-linejoin="round" stroke-miterlimit="10" stroke-opacity="1" fill="#ED7D31" fill-rule="nonzero" fill-opacity="1"/><path d="M2216.14 956.168C2216.14 962.243 2211.21 967.168 2205.14 967.168 2199.06 967.168 2194.14 962.243 2194.14 956.168 2194.14 950.094 2199.06 945.169 2205.14 945.169 2211.21 945.169 2216.14 950.094 2216.14 956.168Z" stroke="#ED7D31" stroke-width="3.4375" stroke-linecap="butt" stroke-linejoin="round" stroke-miterlimit="10" stroke-opacity="1" fill="#ED7D31" fill-rule="nonzero" fill-opacity="1"/><path d="M2384.14 1049.17C2384.14 1055.24 2379.21 1060.17 2373.14 1060.17 2367.06 1060.17 2362.14 1055.24 2362.14 1049.17 2362.14 1043.09 2367.06 1038.17 2373.14 1038.17 2379.21 1038.17 2384.14 1043.09 2384.14 1049.17Z" stroke="#ED7D31" stroke-width="3.4375" stroke-linecap="butt" stroke-linejoin="round" stroke-miterlimit="10" stroke-opacity="1" fill="#ED7D31" fill-rule="nonzero" fill-opacity="1"/><path d="M2552.14 716.168C2552.14 722.243 2547.21 727.168 2541.14 727.168 2535.06 727.168 2530.14 722.243 2530.14 716.168 2530.14 710.093 2535.06 705.169 2541.14 705.169 2547.21 705.169 2552.14 710.093 2552.14 716.168Z" stroke="#ED7D31" stroke-width="3.4375" stroke-linecap="butt" stroke-linejoin="round" stroke-miterlimit="10" stroke-opacity="1" fill="#ED7D31" fill-rule="nonzero" fill-opacity="1"/><path d="M2720.14 919.168C2720.14 925.243 2715.21 930.168 2709.14 930.168 2703.06 930.168 2698.14 925.243 2698.14 919.168 2698.14 913.093 2703.06 908.169 2709.14 908.169 2715.21 908.169 2720.14 913.093 2720.14 919.168Z" stroke="#ED7D31" stroke-width="3.4375" stroke-linecap="butt" stroke-linejoin="round" stroke-miterlimit="10" stroke-opacity="1" fill="#ED7D31" fill-rule="nonzero" fill-opacity="1"/><path d="M2888.14 1086.17C2888.14 1092.24 2883.21 1097.17 2877.14 1097.17 2871.06 1097.17 2866.14 1092.24 2866.14 1086.17 2866.14 1080.09 2871.06 1075.17 2877.14 1075.17 2883.21 1075.17 2888.14 1080.09 2888.14 1086.17Z" stroke="#ED7D31" stroke-width="3.4375" stroke-linecap="butt" stroke-linejoin="round" stroke-miterlimit="10" stroke-opacity="1" fill="#ED7D31" fill-rule="nonzero" fill-opacity="1"/><path d="M3056.14 1012.17C3056.14 1018.24 3051.21 1023.17 3045.14 1023.17 3039.06 1023.17 3034.14 1018.24 3034.14 1012.17 3034.14 1006.09 3039.06 1001.17 3045.14 1001.17 3051.21 1001.17 3056.14 1006.09 3056.14 1012.17Z" stroke="#ED7D31" stroke-width="3.4375" stroke-linecap="butt" stroke-linejoin="round" stroke-miterlimit="10" stroke-opacity="1" fill="#ED7D31" fill-rule="nonzero" fill-opacity="1"/><path d="M3224.14 1067.17C3224.14 1073.24 3219.21 1078.17 3213.14 1078.17 3207.06 1078.17 3202.14 1073.24 3202.14 1067.17 3202.14 1061.09 3207.06 1056.17 3213.14 1056.17 3219.21 1056.17 3224.14 1061.09 3224.14 1067.17Z" stroke="#ED7D31" stroke-width="3.4375" stroke-linecap="butt" stroke-linejoin="round" stroke-miterlimit="10" stroke-opacity="1" fill="#ED7D31" fill-rule="nonzero" fill-opacity="1"/><path d="M3392.14 938.168C3392.14 944.243 3387.21 949.168 3381.14 949.168 3375.06 949.168 3370.14 944.243 3370.14 938.168 3370.14 932.093 3375.06 927.169 3381.14 927.169 3387.21 927.169 3392.14 932.093 3392.14 938.168Z" stroke="#ED7D31" stroke-width="3.4375" stroke-linecap="butt" stroke-linejoin="round" stroke-miterlimit="10" stroke-opacity="1" fill="#ED7D31" fill-rule="nonzero" fill-opacity="1"/></g><g clip-path="url(#clip7)"><path d="M2373 1271.04 2541.08 1290 2709.09 1234M3213.11 1290 3381 1271.04" stroke="#A5A5A5" stroke-width="10.3125" stroke-linecap="round" stroke-linejoin="round" stroke-miterlimit="10" stroke-opacity="1" fill="none" fill-rule="nonzero"/></g><g clip-path="url(#clip8)"><path d="M2384.14 1271.17C2384.14 1277.24 2379.21 1282.17 2373.14 1282.17 2367.06 1282.17 2362.14 1277.24 2362.14 1271.17 2362.14 1265.09 2367.06 1260.17 2373.14 1260.17 2379.21 1260.17 2384.14 1265.09 2384.14 1271.17Z" stroke="#A5A5A5" stroke-width="3.4375" stroke-linecap="butt" stroke-linejoin="round" stroke-miterlimit="10" stroke-opacity="1" fill="#A5A5A5" fill-rule="nonzero" fill-opacity="1"/><path d="M2552.14 1289.17C2552.14 1295.24 2547.21 1300.17 2541.14 1300.17 2535.06 1300.17 2530.14 1295.24 2530.14 1289.17 2530.14 1283.09 2535.06 1278.17 2541.14 1278.17 2547.21 1278.17 2552.14 1283.09 2552.14 1289.17Z" stroke="#A5A5A5" stroke-width="3.4375" stroke-linecap="butt" stroke-linejoin="round" stroke-miterlimit="10" stroke-opacity="1" fill="#A5A5A5" fill-rule="nonzero" fill-opacity="1"/><path d="M2720.14 1234.17C2720.14 1240.24 2715.21 1245.17 2709.14 1245.17 2703.06 1245.17 2698.14 1240.24 2698.14 1234.17 2698.14 1228.09 2703.06 1223.17 2709.14 1223.17 2715.21 1223.17 2720.14 1228.09 2720.14 1234.17Z" stroke="#A5A5A5" stroke-width="3.4375" stroke-linecap="butt" stroke-linejoin="round" stroke-miterlimit="10" stroke-opacity="1" fill="#A5A5A5" fill-rule="nonzero" fill-opacity="1"/><path d="M3224.14 1289.17C3224.14 1295.24 3219.21 1300.17 3213.14 1300.17 3207.06 1300.17 3202.14 1295.24 3202.14 1289.17 3202.14 1283.09 3207.06 1278.17 3213.14 1278.17 3219.21 1278.17 3224.14 1283.09 3224.14 1289.17Z" stroke="#A5A5A5" stroke-width="3.4375" stroke-linecap="butt" stroke-linejoin="round" stroke-miterlimit="10" stroke-opacity="1" fill="#A5A5A5" fill-rule="nonzero" fill-opacity="1"/><path d="M3392.14 1271.17C3392.14 1277.24 3387.21 1282.17 3381.14 1282.17 3375.06 1282.17 3370.14 1277.24 3370.14 1271.17 3370.14 1265.09 3375.06 1260.17 3381.14 1260.17 3387.21 1260.17 3392.14 1265.09 3392.14 1271.17Z" stroke="#A5A5A5" stroke-width="3.4375" stroke-linecap="butt" stroke-linejoin="round" stroke-miterlimit="10" stroke-opacity="1" fill="#A5A5A5" fill-rule="nonzero" fill-opacity="1"/></g><g clip-path="url(#clip9)"><text fill="#595959" fill-opacity="1" font-family="Calibri,Calibri_MSFontService,sans-serif" font-style="normal" font-variant="normal" font-weight="400" font-stretch="normal" font-size="41" text-anchor="start" direction="ltr" writing-mode="lr-tb" unicode-bidi="normal" text-decoration="none" transform="matrix(1 0 0 1 1894.33 1319)">0</text></g><g clip-path="url(#clip10)"><text fill="#595959" fill-opacity="1" font-family="Calibri,Calibri_MSFontService,sans-serif" font-style="normal" font-variant="normal" font-weight="400" font-stretch="normal" font-size="41" text-anchor="start" direction="ltr" writing-mode="lr-tb" unicode-bidi="normal" text-decoration="none" transform="matrix(1 0 0 1 1894.33 1226)">5</text></g><g clip-path="url(#clip11)"><text fill="#595959" fill-opacity="1" font-family="Calibri,Calibri_MSFontService,sans-serif" font-style="normal" font-variant="normal" font-weight="400" font-stretch="normal" font-size="41" text-anchor="start" direction="ltr" writing-mode="lr-tb" unicode-bidi="normal" text-decoration="none" transform="matrix(1 0 0 1 1873.43 1134)">10</text></g><g clip-path="url(#clip12)"><text fill="#595959" fill-opacity="1" font-family="Calibri,Calibri_MSFontService,sans-serif" font-style="normal" font-variant="normal" font-weight="400" font-stretch="normal" font-size="41" text-anchor="start" direction="ltr" writing-mode="lr-tb" unicode-bidi="normal" text-decoration="none" transform="matrix(1 0 0 1 1873.43 1041)">15</text></g><g clip-path="url(#clip13)"><text fill="#595959" fill-opacity="1" font-family="Calibri,Calibri_MSFontService,sans-serif" font-style="normal" font-variant="normal" font-weight="400" font-stretch="normal" font-size="41" text-anchor="start" direction="ltr" writing-mode="lr-tb" unicode-bidi="normal" text-decoration="none" transform="matrix(1 0 0 1 1873.43 949)">20</text></g><g clip-path="url(#clip14)"><text fill="#595959" fill-opacity="1" font-family="Calibri,Calibri_MSFontService,sans-serif" font-style="normal" font-variant="normal" font-weight="400" font-stretch="normal" font-size="41" text-anchor="start" direction="ltr" writing-mode="lr-tb" unicode-bidi="normal" text-decoration="none" transform="matrix(1 0 0 1 1873.43 856)">25</text></g><g clip-path="url(#clip15)"><text fill="#595959" fill-opacity="1" font-family="Calibri,Calibri_MSFontService,sans-serif" font-style="normal" font-variant="normal" font-weight="400" font-stretch="normal" font-size="41" text-anchor="start" direction="ltr" writing-mode="lr-tb" unicode-bidi="normal" text-decoration="none" transform="matrix(1 0 0 1 1873.43 764)">30</text></g><g clip-path="url(#clip16)"><text fill="#595959" fill-opacity="1" font-family="Calibri,Calibri_MSFontService,sans-serif" font-style="normal" font-variant="normal" font-weight="400" font-stretch="normal" font-size="41" text-anchor="start" direction="ltr" writing-mode="lr-tb" unicode-bidi="normal" text-decoration="none" transform="matrix(1 0 0 1 1873.43 672)">35</text></g><g clip-path="url(#clip17)"><text fill="#595959" fill-opacity="1" font-family="Calibri,Calibri_MSFontService,sans-serif" font-style="normal" font-variant="normal" font-weight="400" font-stretch="normal" font-size="41" text-anchor="start" direction="ltr" writing-mode="lr-tb" unicode-bidi="normal" text-decoration="none" transform="matrix(1 0 0 1 1873.43 579)">40</text></g><g clip-path="url(#clip18)"><text fill="#595959" fill-opacity="1" font-family="Calibri,Calibri_MSFontService,sans-serif" font-style="normal" font-variant="normal" font-weight="400" font-stretch="normal" font-size="41" text-anchor="start" direction="ltr" writing-mode="lr-tb" unicode-bidi="normal" text-decoration="none" transform="matrix(1 0 0 1 2007.48 1373)">Apr</text></g><g clip-path="url(#clip19)"><text fill="#595959" fill-opacity="1" font-family="Calibri,Calibri_MSFontService,sans-serif" font-style="normal" font-variant="normal" font-weight="400" font-stretch="normal" font-size="41" text-anchor="start" direction="ltr" writing-mode="lr-tb" unicode-bidi="normal" text-decoration="none" transform="matrix(1 0 0 1 2168.55 1373)">May</text></g><g clip-path="url(#clip20)"><text fill="#595959" fill-opacity="1" font-family="Calibri,Calibri_MSFontService,sans-serif" font-style="normal" font-variant="normal" font-weight="400" font-stretch="normal" font-size="41" text-anchor="start" direction="ltr" writing-mode="lr-tb" unicode-bidi="normal" text-decoration="none" transform="matrix(1 0 0 1 2345.09 1373)">Jun</text></g><g clip-path="url(#clip21)"><text fill="#595959" fill-opacity="1" font-family="Calibri,Calibri_MSFontService,sans-serif" font-style="normal" font-variant="normal" font-weight="400" font-stretch="normal" font-size="41" text-anchor="start" direction="ltr" writing-mode="lr-tb" unicode-bidi="normal" text-decoration="none" transform="matrix(1 0 0 1 2519.14 1373)">Jul</text></g><g clip-path="url(#clip22)"><text fill="#595959" fill-opacity="1" font-family="Calibri,Calibri_MSFontService,sans-serif" font-style="normal" font-variant="normal" font-weight="400" font-stretch="normal" font-size="41" text-anchor="start" direction="ltr" writing-mode="lr-tb" unicode-bidi="normal" text-decoration="none" transform="matrix(1 0 0 1 2676.75 1373)">Aug</text></g><g clip-path="url(#clip23)"><text fill="#595959" fill-opacity="1" font-family="Calibri,Calibri_MSFontService,sans-serif" font-style="normal" font-variant="normal" font-weight="400" font-stretch="normal" font-size="41" text-anchor="start" direction="ltr" writing-mode="lr-tb" unicode-bidi="normal" text-decoration="none" transform="matrix(1 0 0 1 2846.6 1373)">Sep</text></g><g clip-path="url(#clip24)"><text fill="#595959" fill-opacity="1" font-family="Calibri,Calibri_MSFontService,sans-serif" font-style="normal" font-variant="normal" font-weight="400" font-stretch="normal" font-size="41" text-anchor="start" direction="ltr" writing-mode="lr-tb" unicode-bidi="normal" text-decoration="none" transform="matrix(1 0 0 1 3015.84 1373)">Oct</text></g><g clip-path="url(#clip25)"><text fill="#595959" fill-opacity="1" font-family="Calibri,Calibri_MSFontService,sans-serif" font-style="normal" font-variant="normal" font-weight="400" font-stretch="normal" font-size="41" text-anchor="start" direction="ltr" writing-mode="lr-tb" unicode-bidi="normal" text-decoration="none" transform="matrix(1 0 0 1 3179.58 1373)">Nov</text></g><g clip-path="url(#clip26)"><text fill="#595959" fill-opacity="1" font-family="Calibri,Calibri_MSFontService,sans-serif" font-style="normal" font-variant="normal" font-weight="400" font-stretch="normal" font-size="41" text-anchor="start" direction="ltr" writing-mode="lr-tb" unicode-bidi="normal" text-decoration="none" transform="matrix(1 0 0 1 3349.36 1373)">Dec</text></g><g clip-path="url(#clip27)"><text fill="#595959" fill-opacity="1" font-family="Calibri,Calibri_MSFontService,sans-serif" font-style="normal" font-variant="normal" font-weight="400" font-stretch="normal" font-size="64" text-anchor="start" direction="ltr" writing-mode="lr-tb" unicode-bidi="normal" text-decoration="none" transform="matrix(1 0 0 1 2313.8 494)">Theater Outcomes Based on Launch Date</text></g><g clip-path="url(#clip28)"><path d="M3537 891 3625 891" stroke="#4472C4" stroke-width="10.3125" stroke-linecap="round" stroke-linejoin="round" stroke-miterlimit="10" stroke-opacity="1" fill="none" fill-rule="evenodd"/></g><g clip-path="url(#clip29)"><path d="M3591 890C3591 896.075 3586.07 901 3580 901 3573.93 901 3569 896.075 3569 890 3569 883.925 3573.93 879 3580 879 3586.07 879 3591 883.925 3591 890Z" stroke="#4472C4" stroke-width="3.4375" stroke-linecap="butt" stroke-linejoin="round" stroke-miterlimit="10" stroke-opacity="1" fill="#4472C4" fill-rule="nonzero" fill-opacity="1"/></g><g clip-path="url(#clip30)"><text fill="#595959" fill-opacity="1" font-family="Calibri,Calibri_MSFontService,sans-serif" font-style="normal" font-variant="normal" font-weight="400" font-stretch="normal" font-size="41" text-anchor="start" direction="ltr" writing-mode="lr-tb" unicode-bidi="normal" text-decoration="none" transform="matrix(1 0 0 1 3634.01 901)">successful</text></g><g clip-path="url(#clip31)"><path d="M3537 968 3625 968" stroke="#ED7D31" stroke-width="10.3125" stroke-linecap="round" stroke-linejoin="round" stroke-miterlimit="10" stroke-opacity="1" fill="none" fill-rule="evenodd"/></g><g clip-path="url(#clip32)"><path d="M3591 968.499C3591 974.31 3586.07 979.021 3580 979.021 3573.93 979.021 3569 974.31 3569 968.499 3569 962.689 3573.93 957.978 3580 957.978 3586.07 957.978 3591 962.689 3591 968.499Z" stroke="#ED7D31" stroke-width="3.4375" stroke-linecap="butt" stroke-linejoin="round" stroke-miterlimit="10" stroke-opacity="1" fill="#ED7D31" fill-rule="nonzero" fill-opacity="1"/></g><g clip-path="url(#clip33)"><text fill="#595959" fill-opacity="1" font-family="Calibri,Calibri_MSFontService,sans-serif" font-style="normal" font-variant="normal" font-weight="400" font-stretch="normal" font-size="41" text-anchor="start" direction="ltr" writing-mode="lr-tb" unicode-bidi="normal" text-decoration="none" transform="matrix(1 0 0 1 3634.01 979)">failed</text></g><g clip-path="url(#clip34)"><path d="M3537 1045 3625 1045" stroke="#A5A5A5" stroke-width="10.3125" stroke-linecap="round" stroke-linejoin="round" stroke-miterlimit="10" stroke-opacity="1" fill="none" fill-rule="evenodd"/></g><g clip-path="url(#clip35)"><path d="M3591 1045.5C3591 1051.31 3586.07 1056.02 3580 1056.02 3573.93 1056.02 3569 1051.31 3569 1045.5 3569 1039.69 3573.93 1034.98 3580 1034.98 3586.07 1034.98 3591 1039.69 3591 1045.5Z" stroke="#A5A5A5" stroke-width="3.4375" stroke-linecap="butt" stroke-linejoin="round" stroke-miterlimit="10" stroke-opacity="1" fill="#A5A5A5" fill-rule="nonzero" fill-opacity="1"/></g><g clip-path="url(#clip36)"><text fill="#595959" fill-opacity="1" font-family="Calibri,Calibri_MSFontService,sans-serif" font-style="normal" font-variant="normal" font-weight="400" font-stretch="normal" font-size="41" text-anchor="start" direction="ltr" writing-mode="lr-tb" unicode-bidi="normal" text-decoration="none" transform="matrix(1 0 0 1 3634.01 1056)">canceled</text></g><rect x="1844.5" y="399.5" width="2013" height="1015" stroke="#D9D9D9" stroke-width="3.4375" stroke-linecap="butt" stroke-linejoin="round" stroke-miterlimit="10" stroke-opacity="1" fill="none"/></g></svg>