<svg width="2021" height="1022" xmlns="http://www.w3.org/2000/svg" xmlns:xlink="http://www.w3.org/1999/xlink" overflow="hidden"><defs><clipPath id="clip0"><rect x="1984" y="394" width="2021" height="1022"/></clipPath><clipPath id="clip1"><rect x="1990" y="398" width="2012" height="1016"/></clipPath><clipPath id="clip2"><rect x="1990" y="398" width="2012" height="1016"/></clipPath><clipPath id="clip3"><rect x="2079" y="568" width="1535" height="743"/></clipPath><clipPath id="clip4"><rect x="1990" y="398" width="2012" height="1016"/></clipPath><clipPath id="clip5"><rect x="1990" y="398" width="2012" height="1016"/></clipPath><clipPath id="clip6"><rect x="1990" y="398" width="2012" height="1016"/></clipPath><clipPath id="clip7"><rect x="1990" y="398" width="2012" height="1016"/></clipPath><clipPath id="clip8"><rect x="1990" y="398" width="2012" height="1016"/></clipPath><clipPath id="clip9"><rect x="1990" y="398" width="2012" height="1016"/></clipPath><clipPath id="clip10"><rect x="1990" y="398" width="2012" height="1016"/></clipPath><clipPath id="clip11"><rect x="1990" y="398" width="2012" height="1016"/></clipPath><clipPath id="clip12"><rect x="1990" y="398" width="2012" height="1016"/></clipPath><clipPath id="clip13"><rect x="1990" y="398" width="2012" height="1016"/></clipPath><clipPath id="clip14"><rect x="1990" y="398" width="2012" height="1016"/></clipPath><clipPath id="clip15"><rect x="1990" y="398" width="2012" height="1016"/></clipPath><clipPath id="clip16"><rect x="1990" y="398" width="2012" height="1016"/></clipPath><clipPath id="clip17"><rect x="1990" y="398" width="2012" height="1016"/></clipPath><clipPath id="clip18"><rect x="1990" y="398" width="2012" height="1016"/></clipPath><clipPath id="clip19"><rect x="1990" y="398" width="2012" height="1016"/></clipPath><clipPath id="clip20"><rect x="1990" y="398" width="2012" height="1016"/></clipPath><clipPath id="clip21"><rect x="1990" y="398" width="2012" height="1016"/></clipPath><clipPath id="clip22"><rect x="1990" y="398" width="2012" height="1016"/></clipPath><clipPath id="clip23"><rect x="1990" y="398" width="2012" height="1016"/></clipPath><clipPath id="clip24"><rect x="1990" y="398" width="2012" height="1016"/></clipPath><clipPath id="clip25"><rect x="1990" y="398" width="2012" height="1016"/></clipPath><clipPath id="clip26"><rect x="1990" y="398" width="2012" height="1016"/></clipPath></defs><g clip-path="url(#clip0)" transform="translate(-1984 -394)"><rect x="1990" y="399" width="2013" height="1015" fill="#FFFFFF" fill-opacity="1"/><g clip-path="url(#clip1)"><path d="M2079.5 1202.54 3611.5 1202.54M2079.5 1096.54 3611.5 1096.54M2079.5 991.533 3611.5 991.533M2079.5 885.529 3611.5 885.529M2079.5 779.526 3611.5 779.526M2079.5 674.522 3611.5 674.522M2079.5 568.5 3611.5 568.5" stroke="#D9D9D9" stroke-width="3.4375" stroke-linecap="butt" stroke-linejoin="round" stroke-miterlimit="10" stroke-opacity="1" fill="none" fill-rule="nonzero"/></g><g clip-path="url(#clip2)"><path d="M2079.5 1308.5 3611.5 1308.5" stroke="#D9D9D9" stroke-width="3.4375" stroke-linecap="butt" stroke-linejoin="round" stroke-miterlimit="10" stroke-opacity="1" fill="none" fill-rule="evenodd"/></g><g clip-path="url(#clip3)"><path d="M2156 1202 2309.08 1097.04 2462.08 674 2615.09 1097.04 2769.09 991.033 2922.1 1202 3075.1 1202 3228.11 1097.04 3381.11 886.029 3535 886.029" stroke="#4472C4" stroke-width="10.3125" stroke-linecap="round" stroke-linejoin="round" stroke-miterlimit="10" stroke-opacity="1" fill="none" fill-rule="nonzero"/></g><g clip-path="url(#clip4)"><path d="M2166.59 1202.17C2166.59 1208.24 2161.66 1213.17 2155.59 1213.17 2149.51 1213.17 2144.59 1208.24 2144.59 1202.17 2144.59 1196.09 2149.51 1191.17 2155.59 1191.17 2161.66 1191.17 2166.59 1196.09 2166.59 1202.17Z" stroke="#4472C4" stroke-width="3.4375" stroke-linecap="butt" stroke-linejoin="round" stroke-miterlimit="10" stroke-opacity="1" fill="#4472C4" fill-rule="nonzero" fill-opacity="1"/><path d="M2319.59 1096.17C2319.59 1102.24 2314.66 1107.17 2308.59 1107.17 2302.51 1107.17 2297.59 1102.24 2297.59 1096.17 2297.59 1090.09 2302.51 1085.17 2308.59 1085.17 2314.66 1085.17 2319.59 1090.09 2319.59 1096.17Z" stroke="#4472C4" stroke-width="3.4375" stroke-linecap="butt" stroke-linejoin="round" stroke-miterlimit="10" stroke-opacity="1" fill="#4472C4" fill-rule="nonzero" fill-opacity="1"/><path d="M2473.59 674.168C2473.59 680.243 2468.66 685.168 2462.59 685.168 2456.51 685.168 2451.59 680.243 2451.59 674.168 2451.59 668.093 2456.51 663.169 2462.59 663.169 2468.66 663.169 2473.59 668.093 2473.59 674.168Z" stroke="#4472C4" stroke-width="3.4375" stroke-linecap="butt" stroke-linejoin="round" stroke-miterlimit="10" stroke-opacity="1" fill="#4472C4" fill-rule="nonzero" fill-opacity="1"/><path d="M2626.59 1096.17C2626.59 1102.24 2621.66 1107.17 2615.59 1107.17 2609.51 1107.17 2604.59 1102.24 2604.59 1096.17 2604.59 1090.09 2609.51 1085.17 2615.59 1085.17 2621.66 1085.17 2626.59 1090.09 2626.59 1096.17Z" stroke="#4472C4" stroke-width="3.4375" stroke-linecap="butt" stroke-linejoin="round" stroke-miterlimit="10" stroke-opacity="1" fill="#4472C4" fill-rule="nonzero" fill-opacity="1"/><path d="M2779.59 991.168C2779.59 997.243 2774.66 1002.17 2768.59 1002.17 2762.51 1002.17 2757.59 997.243 2757.59 991.168 2757.59 985.093 2762.51 980.169 2768.59 980.169 2774.66 980.169 2779.59 985.093 2779.59 991.168Z" stroke="#4472C4" stroke-width="3.4375" stroke-linecap="butt" stroke-linejoin="round" stroke-miterlimit="10" stroke-opacity="1" fill="#4472C4" fill-rule="nonzero" fill-opacity="1"/><path d="M2932.59 1202.17C2932.59 1208.24 2927.66 1213.17 2921.59 1213.17 2915.51 1213.17 2910.59 1208.24 2910.59 1202.17 2910.59 1196.09 2915.51 1191.17 2921.59 1191.17 2927.66 1191.17 2932.59 1196.09 2932.59 1202.17Z" stroke="#4472C4" stroke-width="3.4375" stroke-linecap="butt" stroke-linejoin="round" stroke-miterlimit="10" stroke-opacity="1" fill="#4472C4" fill-rule="nonzero" fill-opacity="1"/><path d="M3086.59 1202.17C3086.59 1208.24 3081.66 1213.17 3075.59 1213.17 3069.51 1213.17 3064.59 1208.24 3064.59 1202.17 3064.59 1196.09 3069.51 1191.17 3075.59 1191.17 3081.66 1191.17 3086.59 1196.09 3086.59 1202.17Z" stroke="#4472C4" stroke-width="3.4375" stroke-linecap="butt" stroke-linejoin="round" stroke-miterlimit="10" stroke-opacity="1" fill="#4472C4" fill-rule="nonzero" fill-opacity="1"/><path d="M3239.59 1096.17C3239.59 1102.24 3234.66 1107.17 3228.59 1107.17 3222.51 1107.17 3217.59 1102.24 3217.59 1096.17 3217.59 1090.09 3222.51 1085.17 3228.59 1085.17 3234.66 1085.17 3239.59 1090.09 3239.59 1096.17Z" stroke="#4472C4" stroke-width="3.4375" stroke-linecap="butt" stroke-linejoin="round" stroke-miterlimit="10" stroke-opacity="1" fill="#4472C4" fill-rule="nonzero" fill-opacity="1"/><path d="M3392.59 885.168C3392.59 891.243 3387.66 896.168 3381.59 896.168 3375.51 896.168 3370.59 891.243 3370.59 885.168 3370.59 879.093 3375.51 874.169 3381.59 874.169 3387.66 874.169 3392.59 879.093 3392.59 885.168Z" stroke="#4472C4" stroke-width="3.4375" stroke-linecap="butt" stroke-linejoin="round" stroke-miterlimit="10" stroke-opacity="1" fill="#4472C4" fill-rule="nonzero" fill-opacity="1"/><path d="M3545.59 885.168C3545.59 891.243 3540.66 896.168 3534.59 896.168 3528.51 896.168 3523.59 891.243 3523.59 885.168 3523.59 879.093 3528.51 874.169 3534.59 874.169 3540.66 874.169 3545.59 879.093 3545.59 885.168Z" stroke="#4472C4" stroke-width="3.4375" stroke-linecap="butt" stroke-linejoin="round" stroke-miterlimit="10" stroke-opacity="1" fill="#4472C4" fill-rule="nonzero" fill-opacity="1"/></g><g clip-path="url(#clip5)"><text fill="#595959" fill-opacity="1" font-family="Calibri,Calibri_MSFontService,sans-serif" font-style="normal" font-variant="normal" font-weight="400" font-stretch="normal" font-size="41" text-anchor="start" direction="ltr" writing-mode="lr-tb" unicode-bidi="normal" text-decoration="none" transform="matrix(1 0 0 1 2019.88 1319)">0</text></g><g clip-path="url(#clip6)"><text fill="#595959" fill-opacity="1" font-family="Calibri,Calibri_MSFontService,sans-serif" font-style="normal" font-variant="normal" font-weight="400" font-stretch="normal" font-size="41" text-anchor="start" direction="ltr" writing-mode="lr-tb" unicode-bidi="normal" text-decoration="none" transform="matrix(1 0 0 1 2019.88 1213)">1</text></g><g clip-path="url(#clip7)"><text fill="#595959" fill-opacity="1" font-family="Calibri,Calibri_MSFontService,sans-serif" font-style="normal" font-variant="normal" font-weight="400" font-stretch="normal" font-size="41" text-anchor="start" direction="ltr" writing-mode="lr-tb" unicode-bidi="normal" text-decoration="none" transform="matrix(1 0 0 1 2019.88 1107)">2</text></g><g clip-path="url(#clip8)"><text fill="#595959" fill-opacity="1" font-family="Calibri,Calibri_MSFontService,sans-serif" font-style="normal" font-variant="normal" font-weight="400" font-stretch="normal" font-size="41" text-anchor="start" direction="ltr" writing-mode="lr-tb" unicode-bidi="normal" text-decoration="none" transform="matrix(1 0 0 1 2019.88 1002)">3</text></g><g clip-path="url(#clip9)"><text fill="#595959" fill-opacity="1" font-family="Calibri,Calibri_MSFontService,sans-serif" font-style="normal" font-variant="normal" font-weight="400" font-stretch="normal" font-size="41" text-anchor="start" direction="ltr" writing-mode="lr-tb" unicode-bidi="normal" text-decoration="none" transform="matrix(1 0 0 1 2019.88 896)">4</text></g><g clip-path="url(#clip10)"><text fill="#595959" fill-opacity="1" font-family="Calibri,Calibri_MSFontService,sans-serif" font-style="normal" font-variant="normal" font-weight="400" font-stretch="normal" font-size="41" text-anchor="start" direction="ltr" writing-mode="lr-tb" unicode-bidi="normal" text-decoration="none" transform="matrix(1 0 0 1 2019.88 790)">5</text></g><g clip-path="url(#clip11)"><text fill="#595959" fill-opacity="1" font-family="Calibri,Calibri_MSFontService,sans-serif" font-style="normal" font-variant="normal" font-weight="400" font-stretch="normal" font-size="41" text-anchor="start" direction="ltr" writing-mode="lr-tb" unicode-bidi="normal" text-decoration="none" transform="matrix(1 0 0 1 2019.88 685)">6</text></g><g clip-path="url(#clip12)"><text fill="#595959" fill-opacity="1" font-family="Calibri,Calibri_MSFontService,sans-serif" font-style="normal" font-variant="normal" font-weight="400" font-stretch="normal" font-size="41" text-anchor="start" direction="ltr" writing-mode="lr-tb" unicode-bidi="normal" text-decoration="none" transform="matrix(1 0 0 1 2019.88 579)">7</text></g><g clip-path="url(#clip13)"><text fill="#595959" fill-opacity="1" font-family="Calibri,Calibri_MSFontService,sans-serif" font-style="normal" font-variant="normal" font-weight="400" font-stretch="normal" font-size="41" text-anchor="start" direction="ltr" writing-mode="lr-tb" unicode-bidi="normal" text-decoration="none" transform="matrix(1 0 0 1 2128.36 1373)">Jan</text></g><g clip-path="url(#clip14)"><text fill="#595959" fill-opacity="1" font-family="Calibri,Calibri_MSFontService,sans-serif" font-style="normal" font-variant="normal" font-weight="400" font-stretch="normal" font-size="41" text-anchor="start" direction="ltr" writing-mode="lr-tb" unicode-bidi="normal" text-decoration="none" transform="matrix(1 0 0 1 2274.18 1373)">Mar</text></g><g clip-path="url(#clip15)"><text fill="#595959" fill-opacity="1" font-family="Calibri,Calibri_MSFontService,sans-serif" font-style="normal" font-variant="normal" font-weight="400" font-stretch="normal" font-size="41" text-anchor="start" direction="ltr" writing-mode="lr-tb" unicode-bidi="normal" text-decoration="none" transform="matrix(1 0 0 1 2432.16 1373)">Apr</text></g><g clip-path="url(#clip16)"><text fill="#595959" fill-opacity="1" font-family="Calibri,Calibri_MSFontService,sans-serif" font-style="normal" font-variant="normal" font-weight="400" font-stretch="normal" font-size="41" text-anchor="start" direction="ltr" writing-mode="lr-tb" unicode-bidi="normal" text-decoration="none" transform="matrix(1 0 0 1 2587.12 1373)">Jun</text></g><g clip-path="url(#clip17)"><text fill="#595959" fill-opacity="1" font-family="Calibri,Calibri_MSFontService,sans-serif" font-style="normal" font-variant="normal" font-weight="400" font-stretch="normal" font-size="41" text-anchor="start" direction="ltr" writing-mode="lr-tb" unicode-bidi="normal" text-decoration="none" transform="matrix(1 0 0 1 2746.47 1373)">Jul</text></g><g clip-path="url(#clip18)"><text fill="#595959" fill-opacity="1" font-family="Calibri,Calibri_MSFontService,sans-serif" font-style="normal" font-variant="normal" font-weight="400" font-stretch="normal" font-size="41" text-anchor="start" direction="ltr" writing-mode="lr-tb" unicode-bidi="normal" text-decoration="none" transform="matrix(1 0 0 1 2889.38 1373)">Aug</text></g><g clip-path="url(#clip19)"><text fill="#595959" fill-opacity="1" font-family="Calibri,Calibri_MSFontService,sans-serif" font-style="normal" font-variant="normal" font-weight="400" font-stretch="normal" font-size="41" text-anchor="start" direction="ltr" writing-mode="lr-tb" unicode-bidi="normal" text-decoration="none" transform="matrix(1 0 0 1 3044.52 1373)">Sep</text></g><g clip-path="url(#clip20)"><text fill="#595959" fill-opacity="1" font-family="Calibri,Calibri_MSFontService,sans-serif" font-style="normal" font-variant="normal" font-weight="400" font-stretch="normal" font-size="41" text-anchor="start" direction="ltr" writing-mode="lr-tb" unicode-bidi="normal" text-decoration="none" transform="matrix(1 0 0 1 3199.06 1373)">Oct</text></g><g clip-path="url(#clip21)"><text fill="#595959" fill-opacity="1" font-family="Calibri,Calibri_MSFontService,sans-serif" font-style="normal" font-variant="normal" font-weight="400" font-stretch="normal" font-size="41" text-anchor="start" direction="ltr" writing-mode="lr-tb" unicode-bidi="normal" text-decoration="none" transform="matrix(1 0 0 1 3348.08 1373)">Nov</text></g><g clip-path="url(#clip22)"><text fill="#595959" fill-opacity="1" font-family="Calibri,Calibri_MSFontService,sans-serif" font-style="normal" font-variant="normal" font-weight="400" font-stretch="normal" font-size="41" text-anchor="start" direction="ltr" writing-mode="lr-tb" unicode-bidi="normal" text-decoration="none" transform="matrix(1 0 0 1 3503.16 1373)">Dec</text></g><g clip-path="url(#clip23)"><text fill="#595959" fill-opacity="1" font-family="Calibri,Calibri_MSFontService,sans-serif" font-style="normal" font-variant="normal" font-weight="400" font-stretch="normal" font-size="64" text-anchor="start" direction="ltr" writing-mode="lr-tb" unicode-bidi="normal" text-decoration="none" transform="matrix(1 0 0 1 2460.25 494)">Theater Outcomes Based on Launch Date</text></g><g clip-path="url(#clip24)"><path d="M3683 968 3771 968" stroke="#4472C4" stroke-width="10.3125" stroke-linecap="round" stroke-linejoin="round" stroke-miterlimit="10" stroke-opacity="1" fill="none" fill-rule="evenodd"/></g><g clip-path="url(#clip25)"><path d="M3738 968.499C3738 974.31 3733.07 979.021 3727 979.021 3720.93 979.021 3716 974.31 3716 968.499 3716 962.689 3720.93 957.978 3727 957.978 3733.07 957.978 3738 962.689 3738 968.499Z" stroke="#4472C4" stroke-width="3.4375" stroke-linecap="butt" stroke-linejoin="round" stroke-miterlimit="10" stroke-opacity="1" fill="#4472C4" fill-rule="nonzero" fill-opacity="1"/></g><g clip-path="url(#clip26)"><text fill="#595959" fill-opacity="1" font-family="Calibri,Calibri_MSFontService,sans-serif" font-style="normal" font-variant="normal" font-weight="400" font-stretch="normal" font-size="41" text-anchor="start" direction="ltr" writing-mode="lr-tb" unicode-bidi="normal" text-decoration="none" transform="matrix(1 0 0 1 3780.46 979)">successful</text></g><rect x="1990.5" y="399.5" width="2013" height="1015" stroke="#D9D9D9" stroke-width="3.4375" stroke-linecap="butt" stroke-linejoin="round" stroke-miterlimit="10" stroke-opacity="1" fill="none"/></g></svg>